<svg xmlns="http://www.w3.org/2000/svg" xmlns:xlink="http://www.w3.org/1999/xlink" width="90.21" height="104.43" viewBox="0 0 90.21 104.43"><defs><linearGradient gradientUnits="userSpaceOnUse" y2="55.53" x2="26.02" y1="39.7" x1="34.7" id="a"><stop stop-color="red" offset="0"/><stop stop-color="#c00000" offset="1"/></linearGradient><linearGradient xlink:href="#a" y2="36.38" x2="76.88" y1="31.53" x1="82.49" id="b"/><linearGradient xlink:href="#a" y2="48.03" x2="44.91" y1="71.01" x1="19.88" id="c"/><linearGradient xlink:href="#a" y2="88.31" x2="61.75" y1="67.37" x1="54.09" id="d"/><linearGradient xlink:href="#a" y2="91.78" x2="6.26" y1="78.76" x1="16.73" id="e"/></defs><g data-name="Red Ship Left"><path d="M45.44 3.77l20.63 18.59V28l20.59 18.09V58.7s.42 7.11-1.32 9.33c0 0-.58 2.28-7 5.57l-45.2 26.57s-2.89 2.52-7.54-1.62L5.33 80.43S3.5 78.81 3.5 77.16l.11-13.1 18-11.16s-5.79-5.34-7.17-11.46-.61-9.63 1.28-13.89 7.94-11.17 11.43-13.4c5-4.06 16.92-10.38 16.92-10.38s.79-.61 1.36 0" style="stroke-miterlimit:10;fill:none;stroke:#000;stroke-width:7px"/><path d="M45.44 3.77l20.63 18.59-23.35 49.57-21.1-19S-6.85 28.81 44.38 3.62a1 1 0 011.06.15z" style="fill:url(#a);stroke:#8c173c;stroke-width:3px;stroke-miterlimit:10"/><path d="M86.47 45.76L65.73 27.5l.57 31.2 20.09-12a.56.56 0 00.08-.94z" style="fill:url(#b);stroke:#8c173c;stroke-width:3px;stroke-miterlimit:10"/><path d="M42.72 71.93L24.61 83.15l-21-18.94a.09.09 0 010-.15l18-11.16z" style="fill:url(#c);stroke:#8c173c;stroke-width:3px;stroke-miterlimit:10"/><path d="M66.07 22.86v36L86.6 46.7v16.57a9.59 9.59 0 01-4.73 8.27l-48.71 28.63a5.69 5.69 0 01-8.57-4.91V83.15l18.13-11.22s-28.87-24.09 22.9-49.35a.31.31 0 01.45.28z" style="fill:url(#d);stroke:#8c173c;stroke-width:3px;stroke-miterlimit:10"/><path d="M3.5 64.4v12.76s.58 2.41 1.83 3.27l20.29 18.12c-4.2345-3.7591-1.0478-2.1119-1-3.29V83.15L3.71 64.31a.13.13 0 00-.21.09z" style="fill:url(#e);stroke:#8c173c;stroke-width:3px;stroke-miterlimit:10"/></g></svg>